# xmcd
#
# Track frame offsets:
#	150
#	13471
#	25321
#	43558
#	56287
#	71969
#	93751
#	115146
#	131839
#	148037
#	160367
#	179777
#	194343
#	211537
#
# Disc length: 3056 seconds
# Revision: 0
# Processed by: cddbd v1.5.2PL0 Copyright (c) Steve Scherf et al.
# Submitted via: dBpowerAMP V12.0
#
DISCID=ce0bee0e
DTITLE=Garth Brooks - Double Live, Disc 1
DYEAR=1998
DGENRE=Country
TTITLE0=Callin' Baton Rouge (Live)
TTITLE1=Two Of A Kind (Workin' On A Full House)(Live)
TTITLE2=Shameless (Live)
TTITLE3=Papa Loved Mama (Live)
TTITLE4=More Than A Memory (Live)
TTITLE5=The Thunder Rolls (Live)
TTITLE6=We Shall Be Free (Live)
TTITLE7=Unanswered Prayers (Live)
TTITLE8=Standing Outside The Fire (Live)
TTITLE9=Longneck Bottle (Live)
TTITLE10=It Was Your Song (Live)
TTITLE11=Much Too Young (To Feel This Damn Old) (Live)
TTITLE12=The River (Live)
TTITLE13=Tearin' It Up (And Burnin' It Down) (Live)
EXTD=
EXTT0=
EXTT1=
EXTT2=
EXTT3=
EXTT4=
EXTT5=
EXTT6=
EXTT7=
EXTT8=
EXTT9=
EXTT10=
EXTT11=
EXTT12=
EXTT13=
PLAYORDER=
